<svg xmlns="http://www.w3.org/2000/svg" xmlns:xlink="http://www.w3.org/1999/xlink"><symbol id="htmlacademy-icon"><g fill="none"><path d="M13.6 0h-.1L0 1.4v24.7l13.5 8 13.4-8V1.4L13.6 0zM25 12.1L13.5 5.3v-.1h-.1l-.1-.1v.1L1.9 12.1v-9l11.5-1.2L25 3.1v9zM13.4 6.8l11.5 6.7-4.5 2.6-7.1-4.2v1.4l5.9 3.5-.9.5-5-3v1.4l3.8 2.3-.8.5-3-1.8v1.4l1.9 1.1-1.8 1.1L2 13.6l11.4-6.8zM1.9 15.1l11.4 6.8v1l-7.9-4.7v1.4l8 4.8v1.1l-8-4.7v1.4l8 4.8 8.1-4.9v-5.2l3.4-2v10l-11.5 6.9L1.9 25v-9.9z" fill="currentColor"/></g></symbol><symbol id="like-icon"><path d="M12.964 3.78l-.628 3.045-.627 2.625h9.096v2.205L17.773 18.9h-9.41V8.4l4.6-4.62zM2.09 10.5v8.4-8.4zM13.8 0L6.9 6.93c-.418.315-.627.84-.627 1.47v10.5c0 1.155.94 2.1 2.09 2.1h9.41c.836 0 1.568-.525 1.881-1.26l3.137-7.455c.104-.21.104-.525.104-.735v-2.1H23c0-1.155-.94-2.1-2.09-2.1h-6.587l1.045-4.83v-.315c0-.42-.209-.84-.418-1.155L13.8 0zM4.182 8.4H0V21h4.182V8.4z"/></symbol><symbol id="tg-icon"><path d="M16.785.6L.841 6.747c-1.088.437-1.082 1.044-.2 1.315L4.735 9.34l9.471-5.976c.448-.273.857-.126.521.172l-7.674 6.926h-.001.001l-.282 4.22c.414 0 .596-.19.828-.413l1.989-1.934 4.135 3.055c.763.42 1.31.204 1.5-.706L17.938 1.89C18.216.775 17.513.27 16.786.599z"/></symbol><symbol id="vk-icon"><path fill-rule="evenodd" clip-rule="evenodd" d="M23.45 1.448c.166-.546 0-.948-.795-.948H20.03c-.668 0-.976.347-1.143.73 0 0-1.335 3.196-3.226 5.272-.612.602-.89.793-1.224.793-.167 0-.418-.191-.418-.738V1.448c0-.656-.184-.948-.74-.948H9.151c-.417 0-.668.304-.668.593 0 .621.946.765 1.043 2.513v3.798c0 .833-.153.984-.487.984-.89 0-3.055-3.211-4.34-6.885C4.45.788 4.198.5 3.527.5H.9c-.75 0-.9.347-.9.73 0 .682.89 4.07 4.145 8.551 2.17 3.06 5.225 4.719 8.008 4.719 1.669 0 1.875-.368 1.875-1.003v-2.313c0-.737.158-.884.687-.884.39 0 1.057.192 2.615 1.667 1.78 1.749 2.073 2.533 3.075 2.533h2.625c.75 0 1.126-.368.91-1.096-.238-.724-1.088-1.775-2.215-3.022-.612-.71-1.53-1.475-1.809-1.858-.389-.491-.278-.71 0-1.147 0 0 3.2-4.426 3.533-5.929h.001z"/></symbol><symbol id="yt-icon"><path d="M18.607 0H3.174C1.314 0 0 1.594 0 3.4v10.094C0 15.406 1.313 17 3.174 17h15.652C20.468 17 22 15.406 22 13.6V3.4C21.781 1.594 20.468 0 18.607 0zM7.662 12.537V4.463L14.995 8.5l-7.333 4.037z"/></symbol></svg>